<?xml version="1.0" encoding="utf-8"?>
<!-- Generator: Adobe Illustrator 23.0.6, SVG Export Plug-In . SVG Version: 6.00 Build 0)  -->
<!DOCTYPE svg PUBLIC "-//W3C//DTD SVG 1.1//EN" "http://www.w3.org/Graphics/SVG/1.1/DTD/svg11.dtd" [
	<!ENTITY ns_extend "http://ns.adobe.com/Extensibility/1.0/">
	<!ENTITY ns_ai "http://ns.adobe.com/AdobeIllustrator/10.0/">
	<!ENTITY ns_graphs "http://ns.adobe.com/Graphs/1.0/">
	<!ENTITY ns_vars "http://ns.adobe.com/Variables/1.0/">
	<!ENTITY ns_imrep "http://ns.adobe.com/ImageReplacement/1.0/">
	<!ENTITY ns_sfw "http://ns.adobe.com/SaveForWeb/1.0/">
	<!ENTITY ns_custom "http://ns.adobe.com/GenericCustomNamespace/1.0/">
	<!ENTITY ns_adobe_xpath "http://ns.adobe.com/XPath/1.0/">
]>
<svg version="1.1" id="圖層_1" xmlns:x="&ns_extend;" xmlns:i="&ns_ai;" xmlns:graph="&ns_graphs;"
	 xmlns="http://www.w3.org/2000/svg" xmlns:xlink="http://www.w3.org/1999/xlink" x="0px" y="0px" viewBox="0 0 85 85"
	 style="enable-background:new 0 0 85 85;" xml:space="preserve">
<style type="text/css">
	.st0{opacity:0;fill:none;stroke:#7B4AF4;stroke-width:1.3728;stroke-miterlimit:10;}
	.st1{opacity:3.750000e-02;fill:none;stroke:#7945F3;stroke-width:1.3728;stroke-miterlimit:10;}
	.st2{opacity:7.500000e-02;fill:none;stroke:#7741F2;stroke-width:1.3728;stroke-miterlimit:10;}
	.st3{opacity:0.1125;fill:none;stroke:#753CF1;stroke-width:1.3728;stroke-miterlimit:10;}
	.st4{opacity:0.15;fill:none;stroke:#7238F0;stroke-width:1.3728;stroke-miterlimit:10;}
	.st5{opacity:0.1875;fill:none;stroke:#7033EF;stroke-width:1.3728;stroke-miterlimit:10;}
	.st6{opacity:0.225;fill:none;stroke:#6E2EEE;stroke-width:1.3728;stroke-miterlimit:10;}
	.st7{opacity:0.2625;fill:none;stroke:#6C2AED;stroke-width:1.3728;stroke-miterlimit:10;}
	.st8{opacity:0.3;fill:none;stroke:#6A25EC;stroke-width:1.3728;stroke-miterlimit:10;}
	.st9{opacity:0.3375;fill:none;stroke:#6820EB;stroke-width:1.3728;stroke-miterlimit:10;}
	.st10{opacity:0.375;fill:none;stroke:#661CEA;stroke-width:1.3728;stroke-miterlimit:10;}
	.st11{opacity:0.4125;fill:none;stroke:#6417E9;stroke-width:1.3728;stroke-miterlimit:10;}
	.st12{opacity:0.45;fill:none;stroke:#6213E8;stroke-width:1.3728;stroke-miterlimit:10;}
	.st13{opacity:0.4875;fill:none;stroke:#5F0EE7;stroke-width:1.3728;stroke-miterlimit:10;}
	.st14{opacity:0.525;fill:none;stroke:#5D09E6;stroke-width:1.3728;stroke-miterlimit:10;}
	.st15{opacity:0.5625;fill:none;stroke:#5B05E5;stroke-width:1.3728;stroke-miterlimit:10;}
	.st16{opacity:0.6;fill:none;stroke:#5900E4;stroke-width:1.3728;stroke-miterlimit:10;}
	.st17{fill:none;stroke:#1CA4E9;stroke-width:1.3728;stroke-miterlimit:10;}
	.st18{opacity:0.9375;fill:none;stroke:#1CA4E9;stroke-width:1.3728;stroke-miterlimit:10;}
	.st19{opacity:0.875;fill:none;stroke:#1CA4E9;stroke-width:1.3728;stroke-miterlimit:10;}
	.st20{opacity:0.8125;fill:none;stroke:#1CA4E9;stroke-width:1.3728;stroke-miterlimit:10;}
	.st21{opacity:0.75;fill:none;stroke:#1CA4E9;stroke-width:1.3728;stroke-miterlimit:10;}
	.st22{opacity:0.6875;fill:none;stroke:#1CA4E9;stroke-width:1.3728;stroke-miterlimit:10;}
	.st23{opacity:0.625;fill:none;stroke:#1CA4E9;stroke-width:1.3728;stroke-miterlimit:10;}
	.st24{opacity:0.5625;fill:none;stroke:#1CA4E9;stroke-width:1.3728;stroke-miterlimit:10;}
	.st25{opacity:0.5;fill:none;stroke:#1CA4E9;stroke-width:1.3728;stroke-miterlimit:10;}
	.st26{opacity:0.4375;fill:none;stroke:#1CA4E9;stroke-width:1.3728;stroke-miterlimit:10;}
	.st27{opacity:0.375;fill:none;stroke:#1CA4E9;stroke-width:1.3728;stroke-miterlimit:10;}
	.st28{opacity:0.3125;fill:none;stroke:#1CA4E9;stroke-width:1.3728;stroke-miterlimit:10;}
	.st29{opacity:0.25;fill:none;stroke:#1CA4E9;stroke-width:1.3728;stroke-miterlimit:10;}
	.st30{opacity:0.1875;fill:none;stroke:#1CA4E9;stroke-width:1.3728;stroke-miterlimit:10;}
	.st31{opacity:0.125;fill:none;stroke:#1CA4E9;stroke-width:1.3728;stroke-miterlimit:10;}
	.st32{opacity:6.250000e-02;fill:none;stroke:#1CA4E9;stroke-width:1.3728;stroke-miterlimit:10;}
	.st33{opacity:0;fill:none;stroke:#1CA4E9;stroke-width:1.3728;stroke-miterlimit:10;}
	.st34{opacity:0;fill:none;stroke:#2AEFFF;stroke-width:1.3728;stroke-miterlimit:10;}
	.st35{opacity:2.500000e-02;fill:none;stroke:#2AEFFF;stroke-width:1.3728;stroke-miterlimit:10;}
	.st36{opacity:5.000000e-02;fill:none;stroke:#2AEFFF;stroke-width:1.3728;stroke-miterlimit:10;}
	.st37{opacity:7.500000e-02;fill:none;stroke:#2AEFFF;stroke-width:1.3728;stroke-miterlimit:10;}
	.st38{opacity:0.1;fill:none;stroke:#2AEFFF;stroke-width:1.3728;stroke-miterlimit:10;}
	.st39{opacity:0.125;fill:none;stroke:#2AEFFF;stroke-width:1.3728;stroke-miterlimit:10;}
	.st40{opacity:0.15;fill:none;stroke:#2AEFFF;stroke-width:1.3728;stroke-miterlimit:10;}
	.st41{opacity:0.175;fill:none;stroke:#2AEFFF;stroke-width:1.3728;stroke-miterlimit:10;}
	.st42{opacity:0.2;fill:none;stroke:#2AEFFF;stroke-width:1.3728;stroke-miterlimit:10;}
	.st43{opacity:0.225;fill:none;stroke:#2AEFFF;stroke-width:1.3728;stroke-miterlimit:10;}
	.st44{opacity:0.25;fill:none;stroke:#2AEFFF;stroke-width:1.3728;stroke-miterlimit:10;}
	.st45{opacity:0.275;fill:none;stroke:#2AEFFF;stroke-width:1.3728;stroke-miterlimit:10;}
	.st46{opacity:0.3;fill:none;stroke:#2AEFFF;stroke-width:1.3728;stroke-miterlimit:10;}
	.st47{opacity:0.325;fill:none;stroke:#2AEFFF;stroke-width:1.3728;stroke-miterlimit:10;}
	.st48{opacity:0.35;fill:none;stroke:#2AEFFF;stroke-width:1.3728;stroke-miterlimit:10;}
	.st49{opacity:0.375;fill:none;stroke:#2AEFFF;stroke-width:1.3728;stroke-miterlimit:10;}
	.st50{opacity:0.4;fill:none;stroke:#2AEFFF;stroke-width:1.3728;stroke-miterlimit:10;}
	.st51{fill:#00FF00;}
</style>
<metadata>
	<sfw  xmlns="&ns_sfw;">
		<slices></slices>
		<sliceSourceBounds  bottomLeftOrigin="true" height="73.4" width="76.5" x="931.5" y="-569.6"></sliceSourceBounds>
	</sfw>
</metadata>
<g>
	<g>
		<g>
			<path class="st0" d="M54.9,38.1c29.8,9.8-15.5,41.5-18.4,20C35.1,47.3,14.9,55.8,14.9,45s9.2-9.1,18.2-15.2
				C44.4,22.1,47.2,35.6,54.9,38.1z"/>
			<path class="st1" d="M55.1,37.6c28.1,10.4-14.4,41.5-18.6,21c-2.1-10.2-21.9-3.9-21.3-14.4c0.6-10.5,9.5-9.6,18.4-14.8
				C44.6,22.9,47.7,34.9,55.1,37.6z"/>
			<path class="st2" d="M55.3,37.1C81.7,48,42.1,78.6,36.5,59c-2.8-9.6-22.3-5.5-21.1-15.7C16.6,33.2,25.3,33.3,34,29
				C44.8,23.7,48.2,34.1,55.3,37.1z"/>
			<path class="st3" d="M55.6,36.6c24.6,11.3-12,41.5-19,22.9c-3.4-9-22.6-7.1-20.8-16.9c1.8-9.8,10.2-10.6,18.7-13.9
				C44.9,24.5,48.6,33.4,55.6,36.6z"/>
			<path class="st4" d="M55.8,36C78.6,47.8,45,77.5,36.5,60c-4.1-8.4-22.9-8.7-20.6-18.2c2.4-9.5,10.5-11,18.8-13.5
				C45.1,25.3,49.1,32.6,55.8,36z"/>
			<path class="st5" d="M56,35.5C77.1,47.6,46.5,77,36.5,60.4C31.9,52.6,13.3,50.1,16.2,41c2.9-9.1,10.8-11.5,19-13
				C45.2,26.1,49.5,31.8,56,35.5z"/>
			<path class="st6" d="M56.2,35C75.6,47.3,48,76.5,36.5,60.9c-5.3-7.2-23.6-11.9-20.1-20.7c3.5-8.8,11.1-12,19.1-12.6
				C45.4,26.9,50,31,56.2,35z"/>
			<path class="st7" d="M56.4,34.4C74.1,47,49.6,76,36.6,61.3c-5.9-6.6-24-13.5-19.8-22C20.9,31,28.2,26.9,36,27.2
				C45.6,27.6,50.5,30.2,56.4,34.4z"/>
			<path class="st8" d="M56.6,33.9c16,12.7-5.5,41.6-20.1,27.9c-6.4-6-24.3-15.2-19.6-23.2c4.7-8,11.7-13,19.4-11.7
				C45.7,28.4,50.9,29.4,56.6,33.9z"/>
			<path class="st9" d="M56.9,33.4c14.4,12.7-4.1,41.5-20.3,28.9c-7-5.4-24.7-16.8-19.3-24.5c5.3-7.7,12.1-13.5,19.6-11.3
				C45.8,29.2,51.4,28.5,56.9,33.4z"/>
			<path class="st10" d="M57.1,32.9c12.8,12.7-2.6,41.4-20.5,29.9c-7.5-4.9-25-18.4-19.1-25.7c5.9-7.3,12.4-14,19.7-10.8
				C46,29.9,51.9,27.7,57.1,32.9z"/>
			<path class="st11" d="M57.3,32.3C68.5,45,56.1,73.7,36.6,63.2c-8.1-4.3-25.4-20-18.8-27c6.5-7,12.7-14.5,19.9-10.4
				C46.2,30.7,52.4,26.8,57.3,32.3z"/>
			<path class="st12" d="M57.5,31.8c9.7,12.6,0.2,41.2-20.9,31.8C28,59.8,10.9,42.1,18,35.4c7.1-6.6,13-15,20-9.9
				C46.3,31.4,52.9,25.9,57.5,31.8z"/>
			<path class="st13" d="M57.7,31.3c8.3,12.5,1.6,41-21.1,32.8c-9.1-3.3-26-23.2-18.3-29.5c7.7-6.3,13.3-15.5,20.2-9.5
				C46.5,32.2,53.5,24.9,57.7,31.3z"/>
			<path class="st14" d="M57.9,30.8c7,12.4,3,40.8-21.3,33.8c-9.7-2.8-26.4-24.8-18.1-30.8c8.2-5.9,13.7-16,20.3-9.1
				C46.7,32.9,54.1,24,57.9,30.8z"/>
			<path class="st15" d="M58.2,30.2c5.7,12.3,4.4,40.5-21.5,34.8C26.4,62.7,9.9,38.6,18.8,33c8.8-5.6,14-16.6,20.5-8.6
				C46.9,33.7,54.8,23,58.2,30.2z"/>
			<path class="st16" d="M58.4,29.7C62.9,42,64.2,70,36.6,65.5c-10.8-1.8-27.1-28-17.6-33.3C28.5,27,33.4,15.1,39.7,24
				C47,34.4,55.6,22.1,58.4,29.7z"/>
		</g>
		<g>
			<path class="st17" d="M43.7,66.5C23.5,107.4-1.7,34.4,24.9,35.2c13.3,0.4,8.8-30.7,21.8-28.1S55.1,22.5,59.8,37
				C65.8,55,48.8,55.9,43.7,66.5z"/>
			<path class="st18" d="M44.2,66.9C23.9,105.3-1.4,36.5,24.3,35.1C37.1,34.5,35.2,4.3,47.6,7.7c12.4,3.3,8.9,16,12.5,30
				C64.8,55.1,49.6,56.8,44.2,66.9z"/>
			<path class="st19" d="M44.8,67.4c-20.5,35.7-46-28.7-21-32.3C36.1,33.3,36.6,4.1,48.5,8.2c11.9,4.1,9.3,16.6,12,30.1
				C63.8,55.2,50.3,57.7,44.8,67.4z"/>
			<path class="st20" d="M45.4,67.8C24.8,101-1,40.9,23.2,35C35,32.1,38.1,3.9,49.4,8.8c11.3,4.8,9.8,17.2,11.4,30.2
				C62.8,55.2,51.1,58.6,45.4,67.8z"/>
			<path class="st21" d="M45.9,68.3C25.3,98.8-0.9,43.1,22.7,34.9C33.8,31,39.6,3.7,50.2,9.3c10.7,5.6,10.3,17.7,10.8,30.3
				C61.8,55.3,51.9,59.5,45.9,68.3z"/>
			<path class="st22" d="M46.5,68.7c-20.6,28-47.2-23.3-24.4-33.9C32.7,29.8,41,3.5,51.1,9.9c10.1,6.4,10.8,18.3,10.3,30.5
				C60.8,55.3,52.7,60.3,46.5,68.7z"/>
			<path class="st23" d="M47.1,69.1C26.6,94.6-0.6,47.7,21.6,34.7c10-5.9,20.9-31.4,30.4-24.2c9.5,7.1,11.2,18.9,9.7,30.6
				C59.8,55.4,53.5,61.2,47.1,69.1z"/>
			<path class="st24" d="M47.6,69.6c-20.3,23-48-19.4-26.6-35C30.5,27.7,44,3,52.9,11c8.9,7.9,11.7,19.5,9.1,30.7
				C58.8,55.4,54.3,62,47.6,69.6z"/>
			<path class="st25" d="M48.2,70c-20,20.5-48.4-17.4-27.7-35.5c8.9-7.8,25-31.7,33.3-22.9c8.3,8.7,12.2,20,8.6,30.8
				C57.9,55.5,55.1,62.9,48.2,70z"/>
			<path class="st26" d="M48.8,70.4c-19.6,18.1-48.7-15.4-28.9-36c8.4-8.7,27-31.8,34.7-22.3c7.7,9.5,12.8,20.6,8,30.9
				C56.9,55.5,56,63.8,48.8,70.4z"/>
			<path class="st27" d="M49.4,70.9c-19.2,15.8-49-13.3-30-36.6c7.9-9.7,29-31.9,36.2-21.6c7.1,10.2,13.3,21.2,7.4,31
				C56,55.6,56.9,64.7,49.4,70.9z"/>
			<path class="st28" d="M49.9,71.3C31.2,84.8,0.7,60.1,18.8,34.2c7.4-10.6,31-32,37.6-20.9c6.5,11,13.8,21.7,6.9,31.1
				C55,55.6,57.8,65.6,49.9,71.3z"/>
			<path class="st29" d="M50.5,71.8C32.4,83.1,1.1,62.6,18.3,34.1c6.9-11.5,33.1-32.2,39-20.3c5.9,11.8,14.3,22.3,6.3,31.3
				C54.1,55.7,58.8,66.6,50.5,71.8z"/>
			<path class="st30" d="M51.1,72.2C33.5,81.4,1.5,65.1,17.7,34c6.5-12.4,35.1-32.3,40.5-19.6c5.4,12.5,14.8,22.9,5.7,31.4
				C53.1,55.7,59.7,67.6,51.1,72.2z"/>
			<path class="st31" d="M51.6,72.6c-16.9,7.3-49.7-5-34.5-38.7c6-13.4,37.1-32.4,41.9-19c4.8,13.3,15.4,23.5,5.2,31.5
				C52.2,55.8,60.7,68.7,51.6,72.6z"/>
			<path class="st32" d="M52.2,73.1c-16.4,5.4-49.8-3-35.6-39.2c5.6-14.3,39.1-32.5,43.3-18.3c4.2,14.1,15.9,24.1,4.6,31.6
				C51.3,55.9,61.7,69.9,52.2,73.1z"/>
			<path class="st33" d="M52.8,73.5c-15.9,3.7-49.9-1-36.7-39.8c5.2-15.3,41.1-32.7,44.8-17.7c3.6,14.8,16.4,24.7,4,31.7
				C50.3,56,62.7,71.2,52.8,73.5z"/>
		</g>
		<g>
			<path class="st34" d="M21.3,55.7c-46.6-3.9,10.1-62.4,20.8-33.5c5.4,14.4,32.2-3.8,35.5,11.2C81,48.5,67,49,55.7,60.4
				C41.5,74.5,33.3,56.8,21.3,55.7z"/>
			<path class="st35" d="M21.1,56.5c-44.3-5.3,8.4-62,20.8-35c6.2,13.4,33.2-1.7,35.6,13.1C79.9,49.4,66.5,51,55.2,61
				C41,73.5,32.8,57.9,21.1,56.5z"/>
			<path class="st36" d="M21,57.3c-41.9-6.5,6.6-61.6,20.8-36.4c7,12.4,34.2,0.4,35.6,14.9c1.4,14.4-11.3,17.1-22.7,25.8
				C40.5,72.4,32.4,59.1,21,57.3z"/>
			<path class="st37" d="M20.8,58.1c-39.5-7.7,4.9-61.2,20.8-37.8c7.8,11.3,35.2,2.5,35.6,16.7c0.4,14.1-11.7,17.9-23,25.2
				C40,71.4,31.9,60.3,20.8,58.1z"/>
			<path class="st38" d="M20.7,58.9c-37.1-8.9,3.1-60.8,20.8-39.3C50,30,77.7,24.3,77.1,38.2c-0.6,13.8-12,18.6-23.4,24.7
				C39.6,70.3,31.4,61.5,20.7,58.9z"/>
			<path class="st39" d="M20.5,59.7C-14.2,49.8,21.7-0.7,41.3,19c9.2,9.3,37.2,6.8,35.6,20.3c-1.5,13.5-12.3,19.4-23.8,24.1
				C39.1,69.3,31,62.7,20.5,59.7z"/>
			<path class="st40" d="M20.3,60.5c-32.3-10.8-0.7-60.1,20.9-42.1c9.9,8.2,38.2,8.9,35.6,22.2c-2.5,13.2-12.6,20.2-24.1,23.6
				C38.6,68.3,30.6,64,20.3,60.5z"/>
			<path class="st41" d="M20.2,61.3C-9.6,49.7,17.5,1.6,41,17.8c10.5,7.2,39.2,11,35.7,24c-3.5,12.9-12.9,20.9-24.5,23
				C38.2,67.2,30.1,65.2,20.2,61.3z"/>
			<path class="st42" d="M20,62.1c-27.4-12.4-4.7-59.2,20.9-45c11.2,6.2,40.2,13.1,35.7,25.8c-4.4,12.6-13.2,21.7-24.8,22.4
				C37.7,66.2,29.7,66.5,20,62.1z"/>
			<path class="st43" d="M19.9,62.9c-25-13-6.8-58.7,20.9-46.4c11.8,5.2,41.2,15.2,35.7,27.6C71,56.5,62.9,66.6,51.3,66
				C37.2,65.2,29.3,67.8,19.9,62.9z"/>
			<path class="st44" d="M19.7,63.7C-2.9,50.2,10.9,5.6,40.6,15.9C53,20.2,82.8,33.2,76.3,45.3c-6.4,12-13.8,23.3-25.5,21.3
				C36.8,64.2,28.8,69.2,19.7,63.7z"/>
			<path class="st45" d="M19.6,64.5C-0.8,50.6,8.7,7,40.4,15.2c13.1,3.4,43.2,19.4,35.7,31.2C68.8,58.2,62,70.6,50.3,67.2
				C36.3,63.2,28.4,70.6,19.6,64.5z"/>
			<path class="st46" d="M19.4,65.3C1.2,51,6.5,8.5,40.3,14.6C54,17.1,84.4,36.2,76,47.7c-8.3,11.4-14.5,24.9-26.2,20.2
				C35.9,62.3,27.9,72,19.4,65.3z"/>
			<path class="st47" d="M19.2,66.1C3.2,51.5,4.3,10,40.1,14c14.4,1.6,45.2,23.7,35.8,34.9C66.6,60,61.1,74.6,49.3,68.5
				C35.4,61.3,27.3,73.5,19.2,66.1z"/>
			<path class="st48" d="M19.1,66.9C5.1,52,2.2,11.6,40,13.4C55,14.1,86.1,39.1,75.8,50C65.5,60.9,60.6,76.6,48.8,69.1
				C34.9,60.3,26.7,75,19.1,66.9z"/>
			<path class="st49" d="M18.9,67.7C6.8,52.6,0.1,13.2,39.8,12.7C55.5,12.5,87,40.6,75.6,51.2C64.4,61.8,60.2,78.6,48.3,69.7
				C34.4,59.3,26,76.6,18.9,67.7z"/>
			<path class="st50" d="M18.8,68.5C8.4,53.1-2,14.7,39.7,12.1c16.4-1,48.1,30,35.8,40.3c-12.2,10.2-15.8,28.2-27.6,18
				C33.9,58.3,25.2,78.1,18.8,68.5z"/>
		</g>
	</g>
	<circle class="st51" cx="54.9" cy="44.9" r="11.8"/>
</g>
</svg>
